<svg width="540" height="546" viewBox="0 0 540 546" fill="none" xmlns="http://www.w3.org/2000/svg">
<g opacity="0.7">
<path opacity="0.7" d="M283.378 296.087L282.885 295.97V277.024C301.971 272.299 319.256 262.072 332.604 247.606C345.952 233.14 354.777 215.07 357.987 195.631H358.229C363.056 195.631 366.962 188.279 366.962 179.217C366.962 173.592 365.456 168.637 363.164 165.678C363.51 162.213 363.686 158.7 363.691 155.14C363.707 140.963 360.852 126.93 355.3 113.891C349.747 100.852 341.613 89.0776 331.389 79.2807C329.985 72.2757 327.481 65.5384 323.97 59.3203C316.526 46.1754 304.138 32.494 309.19 18.2426L276.486 21.5959L276.185 0.000762939C265.981 1.83668 261.707 13.6905 255.651 22.1324C241.089 42.4365 211.865 45.2617 192.535 61.0724C185.969 66.446 171.198 82.7849 173.975 93.4986C160.984 111.412 154.002 132.995 154.035 155.14C154.035 158.695 154.21 162.207 154.562 165.678C152.27 168.637 150.764 173.592 150.764 179.217C150.764 188.287 154.679 195.631 159.497 195.631H159.739C162.949 215.07 171.774 233.14 185.122 247.606C198.47 262.072 215.755 272.299 234.841 277.024V295.97L234.348 296.087C223.089 294.771 109.47 286.077 134.387 473.358L149.669 529.827L153.073 529.693C153.519 535.359 155.95 540.684 159.935 544.725C163.921 548.767 169.205 551.266 174.852 551.779C180.5 552.292 186.146 550.786 190.792 547.528C195.438 544.27 198.784 539.47 200.238 533.977C221.877 533.902 246.317 533.835 258.788 533.835C271.259 533.835 295.741 533.91 317.337 533.977C318.768 539.499 322.108 544.332 326.763 547.614C331.418 550.897 337.085 552.417 342.754 551.903C348.422 551.388 353.724 548.873 357.715 544.806C361.706 540.738 364.126 535.383 364.544 529.693L367.949 529.827L383.23 473.358C408.264 286.077 294.637 294.771 283.378 296.087Z" fill="url(#paint0_linear_3_16)"/>
</g>
<path d="M540 524.108H0V542.451H540V524.108Z" fill="#E0E0E0"/>
<path d="M517.117 542.462H22.8853V549.965H517.117V542.462Z" fill="#E0E0E0"/>
<path opacity="0.1" d="M517.117 542.462H22.8853V544.96H517.117V542.462Z" fill="#2F3640"/>
<path opacity="0.1" d="M161.762 525.508C161.762 525.508 234.221 525.223 258.862 525.223C283.502 525.223 355.961 525.508 355.961 525.508V514.936H161.762V525.508Z" fill="#2F3640"/>
<path d="M355.97 523.391C355.97 523.391 283.511 523.106 258.871 523.106C234.23 523.106 161.771 523.391 161.771 523.391V389.813C161.771 364.003 172 339.25 190.208 320.999C208.416 302.748 233.111 292.494 258.862 292.492C271.614 292.491 284.242 295.007 296.023 299.898C307.805 304.788 318.51 311.956 327.528 320.993C336.545 330.031 343.698 340.76 348.578 352.568C353.458 364.376 355.97 377.032 355.97 389.813V523.391Z" fill="white"/>
<path d="M249.671 243.832H268.072C271.79 243.832 275.356 245.313 277.985 247.947C280.614 250.582 282.091 254.156 282.091 257.883V296.722C282.091 302.894 279.644 308.813 275.29 313.178C270.936 317.542 265.03 319.994 258.872 319.994C252.714 319.994 246.808 317.542 242.453 313.178C238.099 308.813 235.653 302.894 235.653 296.722V257.883C235.653 254.156 237.13 250.582 239.759 247.947C242.388 245.313 245.953 243.832 249.671 243.832Z" fill="#FDB797"/>
<path opacity="0.1" d="M235.644 279.093C250.895 282.855 266.83 282.855 282.082 279.093V245.946H235.644V279.093Z" fill="#2F3640"/>
<path d="M258.871 260.761C314.831 260.761 360.195 215.293 360.195 159.207C360.195 103.12 314.831 57.6527 258.871 57.6527C202.912 57.6527 157.547 103.12 157.547 159.207C157.547 215.293 202.912 260.761 258.871 260.761Z" fill="#2F3640"/>
<path d="M258.871 279.801C312.497 279.801 355.97 236.229 355.97 182.48C355.97 128.732 312.497 85.1597 258.871 85.1597C205.244 85.1597 161.771 128.732 161.771 182.48C161.771 236.229 205.244 279.801 258.871 279.801Z" fill="#FDB797"/>
<path d="M194.751 68.2749C213.428 52.9923 241.682 50.2678 255.759 30.6343C261.614 22.4775 265.737 11.0177 275.607 9.24042L275.9 30.1146L307.508 26.8619C302.632 40.6271 314.601 53.8809 321.794 66.5815C327.098 75.9752 329.998 86.5398 330.234 97.3311C319.26 103.937 305.651 96.7275 293.431 92.8796C281.554 89.1407 268.932 88.7551 256.487 88.403C250.105 88.2185 243.648 88.0509 237.416 89.4509C231.954 90.6832 226.844 93.0892 221.675 95.2604C213.269 98.7897 186.721 112.102 178.909 103.518C170.059 93.785 187.541 74.1767 194.751 68.2749Z" fill="#2F3640"/>
<path opacity="0.1" d="M200.029 133.67C205.181 136.797 211.237 138.029 217.201 138.851C242.073 142.256 267.399 139.404 290.898 130.551C294.745 140.326 304.138 147.041 314.125 150.235C324.112 153.429 334.776 153.588 345.256 153.714C347.565 153.714 350.041 153.714 351.948 152.432C356.615 149.271 354.357 142.036 351.638 137.09L338.113 112.544C334.115 105.284 330 97.8737 323.811 92.3743C316.049 85.4917 305.744 82.2642 295.581 80.2271C271.561 75.4373 246.762 76.2664 223.114 82.6498C197.838 89.4654 165.368 112.645 200.029 133.67Z" fill="#2F3640"/>
<path d="M200.029 131.558C205.181 134.685 211.237 135.917 217.201 136.739C242.073 140.144 267.399 137.292 290.898 128.439C294.745 138.214 304.138 144.929 314.125 148.123C324.112 151.317 334.776 151.476 345.256 151.602C347.565 151.602 350.041 151.602 351.948 150.32C356.615 147.159 354.357 139.924 351.638 134.978L338.113 110.399C334.115 103.139 330 95.7281 323.811 90.2287C316.049 83.3461 305.744 80.1186 295.581 78.0815C271.561 73.2917 246.762 74.1207 223.114 80.5042C197.838 87.3449 165.368 110.524 200.029 131.558Z" fill="#2F3640"/>
<path d="M354.917 198.344C359.583 198.344 363.365 191.239 363.365 182.475C363.365 173.711 359.583 166.606 354.917 166.606C350.251 166.606 346.469 173.711 346.469 182.475C346.469 191.239 350.251 198.344 354.917 198.344Z" fill="#FDB797"/>
<path d="M162.826 198.344C167.492 198.344 171.274 191.239 171.274 182.475C171.274 173.711 167.492 166.606 162.826 166.606C158.161 166.606 154.379 173.711 154.379 182.475C154.379 191.239 158.161 198.344 162.826 198.344Z" fill="#FDB797"/>
<path d="M281.696 295.523C281.696 295.523 404.516 276.351 379.189 466.767L364.418 521.35L322.196 519.673C322.196 519.673 349.639 456.204 332.751 413.886C315.864 371.567 281.696 295.523 281.696 295.523Z" fill="white"/>
<path d="M236.036 295.523C236.036 295.523 113.25 276.351 138.543 466.767L153.314 521.35L195.537 519.673C195.537 519.673 168.094 456.204 184.981 413.886C201.868 371.567 236.036 295.523 236.036 295.523Z" fill="white"/>
<path opacity="0.1" d="M182.875 379.431C182.875 379.431 174.427 444.82 189.206 463.859L182.875 379.431Z" fill="#2F3640"/>
<path opacity="0.1" d="M334.86 381.108C334.86 381.108 343.308 444.82 328.528 463.859L334.86 381.108Z" fill="#2F3640"/>
<path d="M337.98 542.784C350.804 542.784 361.199 532.365 361.199 519.512C361.199 506.66 350.804 496.241 337.98 496.241C325.157 496.241 314.761 506.66 314.761 519.512C314.761 532.365 325.157 542.784 337.98 542.784Z" fill="#FDB797"/>
<path d="M179.756 542.784C192.58 542.784 202.975 532.365 202.975 519.512C202.975 506.66 192.58 496.241 179.756 496.241C166.933 496.241 156.538 506.66 156.538 519.512C156.538 532.365 166.933 542.784 179.756 542.784Z" fill="#FDB797"/>
<g opacity="0.7">
<path opacity="0.7" d="M317.396 386.49H200.222C190.364 386.49 182.373 394.499 182.373 404.38V504.408C182.373 514.288 190.364 522.298 200.222 522.298H317.396C327.254 522.298 335.245 514.288 335.245 504.408V404.38C335.245 394.499 327.254 386.49 317.396 386.49Z" fill="url(#paint1_linear_3_16)"/>
</g>
<path d="M314.561 389.005H203.05C193.193 389.005 185.201 397.014 185.201 406.894V501.893C185.201 511.773 193.193 519.783 203.05 519.783H314.561C324.419 519.783 332.411 511.773 332.411 501.893V406.894C332.411 397.014 324.419 389.005 314.561 389.005Z" fill="#E0E0E0"/>
<path d="M230.725 510.502V500.685C230.729 500.544 230.702 500.404 230.646 500.274C230.59 500.144 230.507 500.028 230.402 499.934C230.297 499.84 230.172 499.77 230.037 499.729C229.903 499.688 229.76 499.676 229.621 499.696C228.228 499.723 226.855 500.028 225.581 500.593V510.477H222.821V492.302H225.573V498.304C226.985 497.752 228.482 497.448 229.997 497.407C232.507 497.407 233.435 498.95 233.435 501.062V510.493H230.708L230.725 510.502ZM238.596 504.567C238.688 507.853 239.332 508.498 241.347 508.498C242.98 508.422 244.587 508.065 246.098 507.442L246.558 509.513C244.879 510.336 243.041 510.782 241.172 510.82C236.58 510.82 235.869 508.305 235.869 504.265C235.815 502.228 236.046 500.193 236.555 498.22C238.333 497.613 240.205 497.329 242.084 497.382C245.847 497.382 246.993 499.478 246.993 503.133V504.533H238.629L238.596 504.567ZM242.084 499.713C241.008 499.694 239.934 499.77 238.872 499.939C238.687 500.833 238.586 501.742 238.571 502.655H244.308C244.308 500.744 243.965 499.713 242.084 499.713ZM252.121 500.61V510.493H249.369V499.369C251.348 498.337 253.523 497.734 255.751 497.6V499.897C254.513 499.941 253.291 500.182 252.129 500.61H252.121ZM262.994 510.82C258.887 510.82 257.03 508.8 257.03 504.172C257.03 499.277 259.481 497.416 262.994 497.416C267.101 497.416 268.958 499.436 268.958 504.064C268.958 508.959 266.499 510.82 262.994 510.82ZM262.994 499.713C260.886 499.713 259.715 500.928 259.715 504.172C259.715 507.71 260.702 508.498 262.994 508.498C265.102 508.498 266.273 507.299 266.273 504.064C266.273 500.526 265.286 499.721 262.994 499.721V499.713ZM282.232 510.493H278.995C278.232 508.336 277.065 506.344 275.557 504.625H274.11V510.493H271.417V492.302H274.169V502.739H275.457C276.828 501.271 277.924 499.567 278.694 497.709H281.788C280.783 499.761 279.459 501.64 277.865 503.276C279.596 505.505 281.08 507.917 282.29 510.468L282.232 510.493ZM287.392 510.812C284.883 510.812 283.955 509.269 283.955 507.157V497.743H286.681V507.517C286.678 507.659 286.705 507.799 286.76 507.929C286.816 508.058 286.9 508.174 287.005 508.269C287.11 508.363 287.234 508.433 287.369 508.474C287.504 508.515 287.646 508.526 287.785 508.507C289.224 508.481 290.644 508.177 291.967 507.61V497.743H294.753V508.825C292.536 510.122 290.018 510.81 287.451 510.82L287.392 510.812ZM286.179 487.666H231.336C230.219 487.668 229.113 487.45 228.08 487.023C227.048 486.597 226.109 485.971 225.319 485.18C224.528 484.39 223.9 483.451 223.472 482.418C223.043 481.384 222.822 480.276 222.821 479.157V406.852C222.821 405.734 223.041 404.626 223.468 403.593C223.895 402.559 224.521 401.62 225.31 400.83C226.099 400.039 227.036 399.411 228.067 398.983C229.098 398.555 230.203 398.335 231.319 398.335H286.213C287.332 398.33 288.441 398.547 289.477 398.973C290.512 399.399 291.453 400.026 292.247 400.817C293.04 401.608 293.67 402.549 294.1 403.584C294.53 404.62 294.752 405.73 294.753 406.852V479.157C294.753 480.276 294.533 481.385 294.105 482.418C293.678 483.452 293.051 484.392 292.261 485.183C291.471 485.974 290.533 486.601 289.501 487.028C288.469 487.456 287.363 487.675 286.246 487.674L286.179 487.666Z" fill="#6762A6"/>
<path d="M267.896 475.386V439.909C267.896 439.909 270.197 431.417 239.534 443.379C239.475 443.53 239.475 410.567 239.475 410.567L249.512 410.509V431.626C249.512 431.626 277.565 420.552 277.565 440.009V475.37H267.896V475.386ZM273.609 423.285H262.97C266.792 418.599 270.255 410.567 270.255 410.567H281.246C281.246 410.567 279.364 415.799 273.592 423.285H273.609ZM239.659 475.319V455.116L249.738 465.218L239.659 475.319Z" fill="white"/>
<defs>
<linearGradient id="paint0_linear_3_16" x1="258.863" y1="552.009" x2="258.863" y2="0.0258991" gradientUnits="userSpaceOnUse">
<stop stop-color="#808080" stop-opacity="0.25"/>
<stop offset="0.54" stop-color="#808080" stop-opacity="0.12"/>
<stop offset="1" stop-color="#808080" stop-opacity="0.1"/>
</linearGradient>
<linearGradient id="paint1_linear_3_16" x1="47484.1" y1="84995" x2="47484.1" y2="62994" gradientUnits="userSpaceOnUse">
<stop stop-color="#808080" stop-opacity="0.25"/>
<stop offset="0.54" stop-color="#808080" stop-opacity="0.12"/>
<stop offset="1" stop-color="#808080" stop-opacity="0.1"/>
</linearGradient>
</defs>
</svg>
