<svg width="60" height="61" viewBox="0 0 60 61" fill="none" xmlns="http://www.w3.org/2000/svg">
<g filter="url(#filter0_d_3_683)">
<path d="M38.4095 52H17.5286C17.5286 52 5 52 5 39.5C5 27 5 39.5 5 39.5V2L13.1088 8.5611L13.3524 39.5C13.3524 39.5 13.3269 43.635 17.5031 43.635C21.6793 43.635 21.7047 43.6667 21.7047 43.6667H38.4095V52Z" fill="#D40000" stroke="#FF6600" stroke-width="0.999999"/>
<path d="M21.8716 35.3333V2L29.9804 7.83209L30.2239 20.9425" fill="white"/>
<path d="M21.8716 35.3333V2L29.9804 7.83209L30.2239 20.9425" stroke="white" stroke-width="0.999999"/>
<path d="M38.4141 51.8815C47.5743 51.8815 55 44.4726 55.0001 35.3333L38.4141 51.8815ZM55.0001 35.3333C55 26.1941 47.5743 18.7852 38.4141 18.7852C29.2539 18.7852 21.8282 26.1941 21.8281 35.3333C21.8282 44.4726 29.2539 51.8815 38.4141 51.8815L55.0001 35.3333ZM46.6226 35.2708C46.6225 39.837 42.9124 43.5387 38.3358 43.5388L46.6226 35.2708ZM38.3358 43.5388C33.759 43.5389 30.0487 39.8372 30.0487 35.2708C30.0486 30.7044 33.7589 27.0025 38.3358 27.0026C42.9126 27.0027 46.6227 30.7045 46.6226 35.2708" fill="white"/>
<path d="M38.3358 43.5388C33.759 43.5389 30.0487 39.8372 30.0487 35.2708C30.0486 30.7044 33.7589 27.0025 38.3358 27.0026C42.9126 27.0027 46.6227 30.7045 46.6226 35.2708M38.4141 51.8815C47.5743 51.8815 55 44.4726 55.0001 35.3333L38.4141 51.8815ZM55.0001 35.3333C55 26.1941 47.5743 18.7852 38.4141 18.7852C29.2539 18.7852 21.8282 26.1941 21.8281 35.3333C21.8282 44.4726 29.2539 51.8815 38.4141 51.8815L55.0001 35.3333ZM46.6226 35.2708C46.6225 39.837 42.9124 43.5387 38.3358 43.5388L46.6226 35.2708Z" stroke="white" stroke-width="1.13474"/>
<path d="M38.562 47.7466V43.7173L39.3407 43.6341C40.4115 43.5197 41.9647 42.9604 42.8999 42.3525C43.8075 41.7625 44.9522 40.6025 45.5383 39.6788C46.0641 38.8501 46.6138 37.2656 46.7206 36.2711L46.804 35.4941H50.8495H54.895L54.8084 36.442C54.5319 39.469 53.6201 42.0882 51.9874 44.545C51.2033 45.725 48.8162 48.1066 47.6335 48.889C45.1514 50.531 42.53 51.4311 39.4508 51.6987L38.562 51.776V47.7466Z" fill="#D40000" stroke="#FF6600" stroke-width="0.733852"/>
</g>
<defs>
<filter id="filter0_d_3_683" x="0.5" y="0.952148" width="59.0674" height="59.5479" filterUnits="userSpaceOnUse" color-interpolation-filters="sRGB">
<feFlood flood-opacity="0" result="BackgroundImageFix"/>
<feColorMatrix in="SourceAlpha" type="matrix" values="0 0 0 0 0 0 0 0 0 0 0 0 0 0 0 0 0 0 127 0" result="hardAlpha"/>
<feOffset dy="4"/>
<feGaussianBlur stdDeviation="2"/>
<feComposite in2="hardAlpha" operator="out"/>
<feColorMatrix type="matrix" values="0 0 0 0 0 0 0 0 0 0 0 0 0 0 0 0 0 0 0.25 0"/>
<feBlend mode="normal" in2="BackgroundImageFix" result="effect1_dropShadow_3_683"/>
<feBlend mode="normal" in="SourceGraphic" in2="effect1_dropShadow_3_683" result="shape"/>
</filter>
</defs>
</svg>
