<svg width="51" height="53" viewBox="0 0 51 53" fill="none" xmlns="http://www.w3.org/2000/svg">
<path d="M33.7345 52H13.2631C13.2631 52 0.980225 52 0.980225 39.5C0.980225 27 0.980225 39.5 0.980225 39.5V2L8.93001 8.5611L9.16879 39.5C9.16879 39.5 9.14385 43.635 13.2381 43.635C17.3324 43.635 17.3574 43.6667 17.3574 43.6667H33.7345V52Z" fill="#D40000" stroke="#FF6600" stroke-width="0.999999"/>
<path d="M17.5208 35.3333V2L25.4705 7.83209L25.7093 20.9425" fill="#2F3640"/>
<path d="M17.5208 35.3333V2L25.4705 7.83209L25.7093 20.9425" stroke="#2F3640" stroke-width="0.999999"/>
<path d="M33.7392 51.8816C42.7197 51.8815 49.9999 44.4727 49.9999 35.3334L33.7392 51.8816ZM49.9999 35.3334C49.9999 26.1941 42.7197 18.7852 33.7392 18.7852C24.7587 18.7852 17.4786 26.1941 17.4785 35.3334C17.4786 44.4727 24.7587 51.8815 33.7392 51.8816L49.9999 35.3334ZM41.7867 35.2709C41.7867 39.8371 38.1493 43.5387 33.6625 43.5388L41.7867 35.2709ZM33.6625 43.5388C29.1755 43.5389 25.5379 39.8372 25.5379 35.2709C25.5378 30.7044 29.1753 27.0025 33.6625 27.0026C38.1495 27.0027 41.7869 30.7045 41.7867 35.2709" fill="#2F3640"/>
<path d="M33.6625 43.5388C29.1755 43.5389 25.5379 39.8372 25.5379 35.2709C25.5378 30.7044 29.1753 27.0025 33.6625 27.0026C38.1495 27.0027 41.7869 30.7045 41.7867 35.2709M33.7392 51.8816C42.7197 51.8815 49.9999 44.4727 49.9999 35.3334L33.7392 51.8816ZM49.9999 35.3334C49.9999 26.1941 42.7197 18.7852 33.7392 18.7852C24.7587 18.7852 17.4786 26.1941 17.4785 35.3334C17.4786 44.4727 24.7587 51.8815 33.7392 51.8816L49.9999 35.3334ZM41.7867 35.2709C41.7867 39.8371 38.1493 43.5387 33.6625 43.5388L41.7867 35.2709Z" stroke="#2F3640" stroke-width="1.13474"/>
<path d="M33.8843 47.7467V43.7173L34.6477 43.6341C35.6975 43.5197 37.2203 42.9604 38.1371 42.3525C39.0269 41.7626 40.1491 40.6026 40.7237 39.6788C41.2392 38.8501 41.7782 37.2657 41.8828 36.2711L41.9646 35.4942H45.9308H49.897L49.8121 36.4421C49.541 39.469 48.647 42.0882 47.0464 44.545C46.2776 45.725 43.9374 48.1066 42.7779 48.889C40.3444 50.531 37.7745 51.4311 34.7556 51.6988L33.8843 51.776V47.7467Z" fill="#D40000" stroke="#FF6600" stroke-width="0.733852"/>
</svg>
