<svg width="26" height="26" viewBox="0 0 26 26" fill="none" xmlns="http://www.w3.org/2000/svg">
<path d="M13 0.549805C6.125 0.549805 0.5 6.1623 0.5 13.0748C0.5 19.3248 5.075 24.5123 11.05 25.4498V16.6998H7.875V13.0748H11.05V10.3123C11.05 7.17481 12.9125 5.4498 15.775 5.4498C17.1375 5.4498 18.5625 5.6873 18.5625 5.6873V8.77481H16.9875C15.4375 8.77481 14.95 9.7373 14.95 10.7248V13.0748H18.425L17.8625 16.6998H14.95V25.4498C17.8956 24.9846 20.5778 23.4817 22.5124 21.2124C24.4471 18.9431 25.5067 16.0569 25.5 13.0748C25.5 6.1623 19.875 0.549805 13 0.549805Z" fill="#D40000"/>
</svg>
